<svg width="18" height="83" fill="none" xmlns="http://www.w3.org/2000/svg"><path d="M3.18 71.18a.62.62 0 01.805-.059l.07.06 5.327 5.328 5.328-5.328c.22-.22.563-.24.804-.06l.07.06c.22.22.239.562.06.804l-.06.07-5.765 5.764a.618.618 0 01-.804.06l-.07-.06-5.764-5.765a.618.618 0 010-.873z" fill="#000"/><path d="M3.18 76.18a.62.62 0 01.805-.059l.07.06 5.327 5.328 5.328-5.328c.22-.22.563-.24.804-.06l.07.06c.22.22.239.562.06.804l-.06.07-5.765 5.764a.618.618 0 01-.804.06l-.07-.06-5.764-5.765a.618.618 0 010-.873zm7.012-12.635v-1.482c.32-.026.611-.152.871-.377.251-.225.45-.52.598-.884a3.63 3.63 0 00.208-1.274c0-.425-.052-.776-.156-1.053-.104-.277-.247-.485-.429-.624a1.062 1.062 0 00-.663-.208c-.251 0-.446.082-.585.247-.139.156-.256.403-.351.741a14.9 14.9 0 00-.286 1.287 11 11 0 01-.325 1.248 4.93 4.93 0 01-.494 1.079 2.38 2.38 0 01-.728.741c-.286.182-.628.273-1.027.273-.46 0-.871-.126-1.235-.377-.364-.26-.65-.641-.858-1.144-.208-.511-.312-1.135-.312-1.872 0-1.11.256-1.954.767-2.535.503-.59 1.192-.875 2.067-.858v1.43c-.546.035-.936.238-1.17.611-.243.373-.364.845-.364 1.417 0 .52.091.953.273 1.3.173.347.464.52.871.52a.842.842 0 00.442-.117 1.22 1.22 0 00.338-.416c.095-.2.19-.464.286-.793.087-.338.178-.754.273-1.248.078-.416.178-.806.299-1.17.113-.373.264-.693.455-.962a1.94 1.94 0 01.702-.65c.286-.156.637-.234 1.053-.234.477 0 .901.121 1.274.364.364.243.654.615.871 1.118.208.503.312 1.153.312 1.95 0 .607-.07 1.135-.208 1.586a4.396 4.396 0 01-.559 1.144 3.45 3.45 0 01-.754.754c-.269.19-.529.325-.78.403-.26.07-.485.091-.676.065zm-.156-19.183c.659.087 1.222.317 1.69.69.46.372.815.875 1.066 1.508.243.623.364 1.351.364 2.183a6.6 6.6 0 01-.286 1.99 4.644 4.644 0 01-.832 1.56 3.884 3.884 0 01-1.365 1.014c-.546.242-1.17.363-1.872.363-.71 0-1.335-.12-1.872-.364a3.855 3.855 0 01-1.378-1.014 4.52 4.52 0 01-.845-1.56 6.606 6.606 0 01-.286-1.989c0-.84.126-1.573.377-2.197.251-.632.615-1.135 1.092-1.508.468-.372 1.031-.597 1.69-.675v1.468a2.32 2.32 0 00-.988.56c-.277.26-.485.589-.624.988a3.922 3.922 0 00-.221 1.364c0 .65.117 1.235.351 1.755.234.512.576.915 1.027 1.21.45.285 1.01.428 1.677.428.659 0 1.213-.143 1.664-.428.45-.295.793-.698 1.027-1.21.234-.52.351-1.104.351-1.755 0-.51-.07-.962-.208-1.352a2.606 2.606 0 00-.624-.987 2.568 2.568 0 00-.975-.573v-1.469zM13 41.368H4.576v-5.044c0-.632.091-1.178.273-1.638.173-.459.446-.814.819-1.066.364-.25.832-.377 1.404-.377.39 0 .724.065 1.001.195.269.13.49.312.663.546.173.234.308.507.403.82.087.303.143.632.169.987l-.091.13c.017-.554.074-1.018.169-1.39.087-.373.251-.655.494-.846.243-.19.602-.286 1.079-.286H13v1.508h-1.963c-.33 0-.585.057-.767.17-.182.112-.308.311-.377.597-.078.286-.117.69-.117 1.21v2.99H13v1.494zm-4.446-1.495v-3.549c0-.52-.126-.914-.377-1.183-.26-.268-.602-.403-1.027-.403-.407 0-.72.135-.936.403-.217.27-.325.663-.325 1.183v3.55h2.665zm4.602-14.334c0 .997-.178 1.868-.533 2.613-.355.737-.858 1.309-1.508 1.716-.65.399-1.426.598-2.327.598s-1.677-.2-2.327-.598a3.934 3.934 0 01-1.508-1.716c-.355-.745-.533-1.616-.533-2.613 0-1.014.178-1.885.533-2.613a3.934 3.934 0 011.508-1.716c.65-.407 1.426-.611 2.327-.611s1.677.204 2.327.611c.65.407 1.153.98 1.508 1.716.355.728.533 1.599.533 2.613zm-1.326 0c0-.659-.108-1.24-.325-1.742a2.64 2.64 0 00-1.014-1.196c-.45-.295-1.018-.442-1.703-.442-.676 0-1.24.147-1.69.442a2.64 2.64 0 00-1.014 1.196c-.225.503-.338 1.083-.338 1.742 0 .65.113 1.235.338 1.755a2.72 2.72 0 001.014 1.209c.45.295 1.014.442 1.69.442.685 0 1.252-.147 1.703-.442a2.72 2.72 0 001.014-1.209c.217-.52.325-1.105.325-1.755zM4.576 16.11h7.137v-5.29H13v6.785H4.576V16.11zm0-9.73h7.137V1.09H13v6.786H4.576V6.38z" fill="#000"/></svg>