<svg width="416" height="68" fill="none" xmlns="http://www.w3.org/2000/svg"><path d="M0 1.3v-1h-1v1h1zm68.2 0h1v-1h-1v1zm0 11.1v1h1v-1h-1zM0 12.4h-1v1h1v-1zM27.5 11v-1h-1v1h1zm13.3 0h1v-1h-1v1zm0 55v1h1v-1h-1zm-13.3 0h-1v1h1v-1zM0 2.3h68.2v-2H0v2zm67.2-1v11.1h2V1.3h-2zm1 10.1H0v2h68.2v-2zM1 12.4V1.3h-2v11.1h2zm26.5-.4h13.3v-2H27.5v2zm12.3-1v55h2V11h-2zm1 54H27.5v2h13.3v-2zm-12.3 1V11h-2v55h2zm60.787-2.7l-.41.912.012.005.398-.917zm-14-11.6l-.842.54.005.007.837-.547zm0-36.1l-.837-.547-.005.008.843.539zm14-11.5l.403.915.005-.002-.407-.913zm44.201 0l-.411.912.008.003.403-.915zm13.9 11.5l-.843.54.005.007.838-.547zm0 36.1l-.838-.547-.005.008.843.539zm-13.9 11.6l.402.916.008-.004-.41-.912zm-8.1-9.9l-.367-.93-.005.002.372.928zm9.5-7.3l-.814-.581-.008.01.822.571zm0-24.8l-.822.57.008.011.814-.581zm-9.5-7.3l-.385.923.009.004.009.004.367-.931zm-28.1 0l.36.933.014-.006-.375-.927zm-9.7 32.1l.813-.581-.813.581zm9.7 7.3l-.361.933.36-.933zm14.1 12.9c-8.501 0-15.725-1.318-21.702-3.917l-.797 1.834c6.29 2.735 13.799 4.083 22.499 4.083v-2zm-21.69-3.912c-5.913-2.664-10.423-6.413-13.573-11.235l-1.675 1.094c3.383 5.178 8.206 9.162 14.427 11.965l.821-1.824zM76.13 51.161c-3.08-4.812-4.642-10.617-4.642-17.461h-2c0 7.156 1.637 13.351 4.957 18.54l1.685-1.08zM71.488 33.7c0-6.913 1.563-12.75 4.642-17.56l-1.685-1.08c-3.321 5.19-4.957 11.42-4.957 18.64h2zm4.637-17.553c3.149-4.82 7.656-8.534 13.565-11.132l-.805-1.83C82.661 5.92 77.835 9.873 74.45 15.053l1.675 1.094zm13.57-11.134C95.669 2.351 102.89 1 111.388 1v-2C102.685-1 95.172.383 88.88 3.187l.815 1.826zM111.388 1c8.566 0 15.784 1.351 21.689 4.012l.821-1.824C127.67.382 120.155-1 111.388-1v2zm21.697 4.015c5.908 2.597 10.379 6.31 13.46 11.124l1.685-1.078c-3.319-5.185-8.115-9.14-14.34-11.876l-.805 1.83zm13.465 11.132c3.143 4.81 4.738 10.644 4.738 17.553h2c0-7.225-1.672-13.457-5.063-18.647l-1.675 1.094zm4.738 17.553c0 6.84-1.594 12.642-4.738 17.453l1.675 1.094c3.39-5.189 5.063-11.387 5.063-18.547h-2zm-4.743 17.46c-3.083 4.818-7.556 8.565-13.468 11.228l.821 1.824c6.222-2.803 11.015-6.79 14.332-11.973l-1.685-1.078zm-13.46 11.225c-5.907 2.596-13.129 3.915-21.697 3.915v2c8.764 0 16.276-1.348 22.502-4.084l-.805-1.831zM111.388 56.8c5.431 0 10.228-.814 14.371-2.471l-.743-1.858c-3.857 1.544-8.393 2.329-13.628 2.329v2zm14.366-2.47c4.231-1.664 7.565-4.215 9.955-7.66l-1.643-1.14c-2.143 3.088-5.143 5.404-9.045 6.94l.733 1.86zm9.947-7.649c2.482-3.474 3.687-7.824 3.687-12.981h-2c0 4.843-1.129 8.76-3.314 11.819l1.627 1.162zm3.687-12.981c0-5.157-1.205-9.507-3.687-12.981l-1.627 1.162c2.185 3.06 3.314 6.976 3.314 11.819h2zm-3.679-12.97c-2.39-3.445-5.724-5.996-9.955-7.66l-.733 1.86c3.902 1.536 6.902 3.852 9.045 6.94l1.643-1.14zm-9.937-7.653c-4.146-1.728-8.949-2.577-14.384-2.577v2c5.23 0 9.761.817 13.615 2.423l.769-1.846zM111.388 10.5c-5.372 0-10.203.85-14.475 2.573l.749 1.854c3.994-1.61 8.564-2.427 13.726-2.427v-2zm-14.462 2.567c-4.295 1.663-7.694 4.21-10.152 7.652L88.4 21.88c2.209-3.091 5.276-5.411 9.248-6.948l-.722-1.866zM86.775 20.72c-2.482 3.474-3.686 7.824-3.686 12.981h2c0-4.843 1.128-8.76 3.313-11.819l-1.627-1.162zM83.088 33.7c0 5.157 1.204 9.507 3.686 12.981L88.4 45.52c-2.185-3.06-3.313-6.976-3.313-11.819h-2zm3.686 12.981c2.458 3.442 5.857 5.989 10.153 7.652l.721-1.866c-3.97-1.537-7.038-3.857-9.247-6.948l-1.627 1.162zm10.153 7.652c4.267 1.652 9.093 2.467 14.461 2.467v-2c-5.166 0-9.741-.785-13.74-2.333l-.721 1.866zM224.67 1.3v-1h-1v1h1zm13.3 0h1v-1h-1v1zm-1.9 48.7l-.929-.368-.004.008-.003.009.936.351zm-13.2 13.5l.406.914.01-.004-.416-.91zm-9.9 2.9l-.164-.986h-.003l.167.986zm-22.8 0l-.161.987.161-.987zm-10.1-2.9l-.423.906.012.006.013.005.398-.917zm-7.8-5.4l-.707.707.707-.707zm-5.2-8.1l-.936.351.003.009.004.008.929-.368zm-1.8-48.7v-1h-1v1h1zm13.3 0h1v-1h-1v1zm3 47.7l-.8.6.008.01.792-.61zm8.2 5.4l-.277.96.011.004.011.003.255-.967zm23.6 0l.265.964.012-.003-.277-.961zm8.2-5.4l-.79-.613-.002.003.792.61zm4.1-11.6V1.3h-2v36.1h2zm-1-35.1h13.3v-2h-13.3v2zm12.3-1v37.5h2V1.3h-2zm0 37.5c0 4.17-.619 7.774-1.829 10.832l1.859.736c1.323-3.342 1.97-7.205 1.97-11.568h-2zm-1.836 10.849c-1.152 3.073-2.808 5.645-4.96 7.733l1.393 1.436c2.381-2.312 4.192-5.14 5.44-8.467l-1.873-.702zm-4.96 7.733c-2.179 2.116-4.749 3.853-7.719 5.208l.831 1.82c3.163-1.445 5.927-3.308 8.281-5.592l-1.393-1.436zm-7.71 5.204c-2.915 1.296-6.132 2.24-9.658 2.828l.329 1.972c3.674-.612 7.056-1.601 10.141-2.972l-.812-1.828zm-9.661 2.828c-3.473.59-7.15.886-11.033.886v2c3.984 0 7.774-.304 11.368-.914l-.335-1.972zm-11.033.886c-4.017 0-7.83-.296-11.438-.887l-.323 1.974c3.725.61 7.646.913 11.761.913v-2zm-11.438-.887c-3.594-.588-6.88-1.533-9.863-2.83l-.797 1.834c3.15 1.37 6.597 2.358 10.337 2.97l.323-1.974zm-9.839-2.82c-2.901-1.353-5.403-3.088-7.516-5.2l-1.414 1.414c2.288 2.288 4.986 4.153 8.084 5.6l.846-1.813zm-7.516-5.2c-2.093-2.094-3.755-4.675-4.977-7.761l-1.859.736c1.311 3.313 3.116 6.133 5.422 8.44l1.414-1.415zm-4.97-7.744c-1.149-3.064-1.737-6.674-1.737-10.849h-2c0 4.358.613 8.215 1.864 11.551l1.873-.702zM166.27 38.8V1.3h-2v37.5h2zm-1-36.5h13.3v-2h-13.3v2zm12.3-1v36.1h2V1.3h-2zm0 36.1c0 5.177 1.019 9.291 3.2 12.2l1.6-1.2c-1.818-2.424-2.8-6.043-2.8-11h-2zm3.208 12.21c2.143 2.786 5.065 4.698 8.715 5.75l.554-1.92c-3.283-.948-5.827-2.636-7.684-5.05l-1.585 1.22zm8.737 5.757c3.633.96 7.721 1.433 12.255 1.433v-2c-4.398 0-8.31-.46-11.744-1.367l-.511 1.934zM201.77 56.8c4.404 0 8.362-.474 11.865-1.436l-.529-1.928c-3.297.905-7.072 1.364-11.336 1.364v2zm11.877-1.44c3.65-1.052 6.573-2.964 8.716-5.75l-1.585-1.22c-1.857 2.414-4.401 4.102-7.685 5.05l.554 1.92zm8.714-5.747c2.255-2.911 3.309-7.03 3.309-12.213h-2c0 4.951-1.012 8.565-2.89 10.987l1.581 1.226zM328.856 42.7l.994.115.128-1.115h-1.122v1zm-53.5 22.5l-.269.963h.003l.266-.963zm-13-6.3l-.614.79.007.005.607-.795zm-8.4-10.4l-.903.43.003.006.9-.436zm8.4-39.9l.614.79.002-.002-.616-.788zm13-6.4l.27.963.008-.002-.278-.961zm35.5.8l-.355.935.004.001.351-.936zm12.6 8.6l-.773.635.006.007.767-.642zm5.4 13.4v1h1.107l-.112-1.1-.995.1zm-13.2 0l-.955.296.218.704h.737v-1zm-4.4-7.2l-.718.695.011.012.012.012.695-.719zm-7.8-4.7l.316-.949-.316.949zm-25.8 1l.374.928.013-.006-.387-.922zm-9.6 7.5l.822.57.005-.008-.827-.562zm0 24.3l-.821.57.821-.57zm9.6 7.5l-.387.922.013.005.374-.927zm25.7.9l-.316-.949-.006.002.322.947zm7.8-4.6l-.695-.719-.006.006-.006.006.707.707zm4.5-7v-1h-.709l-.235.67.944.33zm12.207-.115c-.58 5.026-2.344 9.27-5.274 12.773l1.534 1.284c3.204-3.831 5.106-8.453 5.727-13.827l-1.987-.23zm-5.274 12.773c-2.936 3.511-6.946 6.22-12.077 8.103l.689 1.878c5.402-1.983 9.725-4.875 12.922-8.697l-1.534-1.284zm-12.077 8.103c-5.129 1.883-11.274 2.839-18.456 2.839v2c7.352 0 13.741-.977 19.145-2.961l-.689-1.878zM292.056 66.3c-5.99 0-11.466-.691-16.433-2.064l-.533 1.928c5.165 1.427 10.823 2.136 16.966 2.136v-2zm-16.43-2.063c-4.893-1.37-9.109-3.418-12.663-6.132l-1.214 1.59c3.78 2.886 8.231 5.038 13.338 6.468l.539-1.926zm-12.656-6.126c-3.478-2.705-6.18-6.05-8.114-10.047l-1.8.872c2.067 4.27 4.964 7.858 8.686 10.753l1.228-1.578zm-8.111-10.04c-1.924-4.042-2.903-8.79-2.903-14.271h-2c0 5.719 1.022 10.771 3.097 15.13l1.806-.86zM251.956 33.8c0-5.481.979-10.229 2.903-14.27l-1.806-.86c-2.075 4.359-3.097 9.411-3.097 15.13h2zm2.903-14.27c1.935-4.062 4.637-7.438 8.111-10.14l-1.228-1.58c-3.725 2.898-6.623 6.522-8.689 10.86l1.806.86zm8.113-10.142c3.553-2.778 7.765-4.856 12.654-6.225l-.539-1.926c-5.112 1.431-9.566 3.62-13.347 6.575l1.232 1.576zm12.662-6.227C280.598 1.724 286.07 1 292.056 1v-2c-6.147 0-11.808.743-16.978 2.24l.556 1.92zM292.056 1c7.179 0 13.32.988 18.445 2.935l.71-1.87C305.804.012 299.411-1 292.056-1v2zm18.449 2.936c5.199 1.95 9.242 4.724 12.179 8.299l1.545-1.27c-3.197-3.891-7.553-6.85-13.022-8.901l-.702 1.872zm12.184 8.306c2.925 3.496 4.657 7.769 5.172 12.859l1.99-.202c-.551-5.443-2.419-10.104-5.628-13.94l-1.534 1.283zM328.856 24h-13.2v2h13.2v-2zm-12.244.704c-.916-2.957-2.47-5.503-4.66-7.623l-1.391 1.438c1.943 1.88 3.322 4.134 4.14 6.777l1.911-.592zm-4.637-7.6c-2.13-2.2-4.876-3.844-8.203-4.953l-.632 1.898c3.074 1.024 5.527 2.514 7.398 4.446l1.437-1.39zm-8.203-4.953c-3.327-1.109-7.239-1.651-11.716-1.651v2c4.324 0 8.012.525 11.084 1.549l.632-1.898zM292.056 10.5c-5.571 0-10.507.883-14.786 2.678l.773 1.844c3.987-1.672 8.651-2.522 14.013-2.522v-2zm-14.774 2.673c-4.297 1.732-7.663 4.35-10.053 7.865l1.654 1.124c2.144-3.152 5.178-5.534 9.147-7.135l-.748-1.854zm-10.047 7.857c-2.407 3.468-3.579 7.746-3.579 12.77h2c0-4.71 1.095-8.565 3.222-11.63l-1.643-1.14zm-3.579 12.77c0 4.96 1.174 9.204 3.579 12.67l1.643-1.14c-2.128-3.067-3.222-6.89-3.222-11.53h-2zm3.579 12.67c2.388 3.442 5.749 6.055 10.035 7.852l.773-1.844c-3.981-1.67-7.02-4.057-9.165-7.148l-1.643 1.14zm10.047 7.857c4.276 1.725 9.208 2.573 14.774 2.573v-2c-5.366 0-10.035-.818-14.026-2.427l-.748 1.854zm14.774 2.573c4.476 0 8.358-.542 11.623-1.653l-.645-1.894c-3.002 1.022-6.654 1.547-10.978 1.547v2zm11.616-1.651c3.32-1.107 6.062-2.713 8.191-4.842l-1.414-1.414c-1.871 1.87-4.328 3.331-7.409 4.358l.632 1.898zm8.18-4.83c2.176-2.107 3.762-4.572 4.748-7.389l-1.888-.66c-.881 2.517-2.294 4.718-4.251 6.611l1.391 1.438zm3.804-6.719h13.2v-2h-13.2v2zM353.533 28v-1h-1v1h1zm51.3 0h1v-1h-1v1zm0 11.1v1h1v-1h-1zm-51.3 0h-1v1h1v-1zm49.1-37.8v-1h-1v1h1zm13.3 0h1v-1h-1v1zm0 64.7v1h1v-1h-1zm-13.3 0h-1v1h1v-1zm-60.8-64.7v-1h-1v1h1zm13.3 0h1v-1h-1v1zm0 64.7v1h1v-1h-1zm-13.3 0h-1v1h1v-1zm11.7-37h51.3v-2h-51.3v2zm50.3-1v11.1h2V28h-2zm1 10.1h-51.3v2h51.3v-2zm-50.3 1V28h-2v11.1h2zm48.1-36.8h13.3v-2h-13.3v2zm12.3-1V66h2V1.3h-2zm1 63.7h-13.3v2h13.3v-2zm-12.3 1V1.3h-2V66h2zm-61.8-63.7h13.3v-2h-13.3v2zm12.3-1V66h2V1.3h-2zm1 63.7h-13.3v2h13.3v-2zm-12.3 1V1.3h-2V66h2z" fill="#000"/></svg>