<svg width="16" height="13" fill="none" xmlns="http://www.w3.org/2000/svg"><path d="M10.859 1.563a2.265 2.265 0 00-2.265 2.223l-.022 1.23a.468.468 0 01-.53.455l-1.22-.165c-1.604-.219-3.14-.958-4.615-2.186-.467 2.585.445 4.376 2.642 5.757l1.364.857a.469.469 0 01.027.776l-1.244.908c.74.046 1.442.013 2.025-.102 3.684-.736 6.134-3.508 6.134-8.081 0-.373-.79-1.672-2.296-1.672zM7.032 3.757a3.826 3.826 0 016.548-2.62c.556-.004 1.028.137 2.085-.503-.262 1.28-.39 1.836-.948 2.6 0 5.969-3.668 8.87-7.39 9.613-2.552.51-6.263-.327-7.327-1.437.542-.043 2.744-.28 4.017-1.21C2.94 9.49-1.346 6.966 1.47.184 2.793 1.73 4.133 2.78 5.492 3.338c.905.37 1.126.363 1.541.42z" fill="#000"/></svg>